#N canvas 1214 229 1399 915 12;
#X obj 436 334 dac~ 1 2;
#X floatatom 194 151 3 0 0 0 - - -;
#X obj 139 56 notein, f 24;
#X obj 134 118 stripnote;
#X floatatom 135 150 3 0 0 0 - - -;
#X text 136 41 MIDI IN;
#X obj 135 305 spigot;
#X obj 177 239 > 1;
#X obj 293 132 == 1;
#X obj 277 191 spigot;
#X obj 343 191 spigot;
#X obj 272 271 pack 0 0 0;
#X obj 289 223 poly 6 1;
#X obj 457 292 /~ 3;
#X obj 457 248 catch~ output;
#X obj 271 304 clone note 6 1;
#X obj 249 403 ride;
#X obj 123 355 select 36 40 48 59 55 39 56;
#X obj 289 403 splash;
#X obj 346 404 clap;
#X obj 387 404 cowbell;
#X obj 283 245 - 1;
#X text 370 9 Pure Data patch for the PICO MIDI Cheesebox Notes to
channel 1 are sent to a note synthesizer which is 6 note polyphonic.
Notes to other channels are used for rhythms. The note value is used
to select the sound generator., f 42;
#X text 439 185 All the sound generators throw their output here to
be converted into an audio signal by the dac, f 32;
#X floatatom 356 108 5 0 0 0 - - -;
#X obj 26 404 kickdrum;
#X obj 107 404 snaredrum;
#X obj 192 403 tomtom;
#X connect 2 0 3 0;
#X connect 2 0 9 0;
#X connect 2 1 3 1;
#X connect 2 1 10 0;
#X connect 2 2 7 0;
#X connect 2 2 8 0;
#X connect 2 2 24 0;
#X connect 3 0 4 0;
#X connect 3 1 1 0;
#X connect 4 0 6 0;
#X connect 6 0 17 0;
#X connect 7 0 6 1;
#X connect 8 0 9 1;
#X connect 8 0 10 1;
#X connect 9 0 12 0;
#X connect 10 0 12 1;
#X connect 11 0 15 0;
#X connect 12 0 21 0;
#X connect 12 1 11 1;
#X connect 12 2 11 2;
#X connect 13 0 0 0;
#X connect 13 0 0 1;
#X connect 14 0 13 0;
#X connect 17 0 25 0;
#X connect 17 1 26 0;
#X connect 17 2 27 0;
#X connect 17 3 16 0;
#X connect 17 4 18 0;
#X connect 17 5 19 0;
#X connect 17 6 20 0;
#X connect 21 0 11 0;
