#N canvas 1375 523 871 725 12;
#X obj 17 24 inlet;
#X floatatom 17 92 5 0 0 0 - - -;
#X floatatom 91 93 5 0 0 0 - - -;
#X obj 19 133 mtof;
#X obj 19 171 osc~;
#X obj 20 224 *~;
#X obj 14 57 unpack 0 0;
#X obj 19 256 throw~ output;
#X obj 92 127 select 0;
#X floatatom 194 203 5 0 0 0 - - -;
#X obj 193 170 / 127;
#X obj 198 263 line~;
#X msg 197 235 \$1 10;
#X msg 84 159 0 500;
#X connect 0 0 6 0;
#X connect 1 0 3 0;
#X connect 2 0 8 0;
#X connect 3 0 4 0;
#X connect 4 0 5 0;
#X connect 5 0 7 0;
#X connect 6 0 1 0;
#X connect 6 1 2 0;
#X connect 8 0 13 0;
#X connect 8 1 10 0;
#X connect 9 0 12 0;
#X connect 10 0 9 0;
#X connect 11 0 5 1;
#X connect 12 0 11 0;
#X connect 13 0 11 0;
